<?xml version="1.0" encoding="UTF-8"?>
<svg id="Layer_1" xmlns="http://www.w3.org/2000/svg" version="1.1" viewBox="0 0 24 24">
  <!-- Generator: Adobe Illustrator 29.0.0, SVG Export Plug-In . SVG Version: 2.1.0 Build 186)  -->
  <defs>
    <style>
      .st0, .st1, .st2 {
        stroke: #000;
        stroke-width: 2px;
      }

      .st0, .st2 {
        fill: none;
      }

      .st2 {
        stroke-linecap: round;
      }
    </style>
  </defs>
  <circle class="st0" cx="12" cy="10" r="3"/>
  <path class="st2" d="M12.1,3.1v1.6M17.4,9.4h2.1M5.2,9.4h1.6M15.6,5.9l1.3-1.3M6.2,14.3l1.3-1.3M8,6.2l-1-1.1"/>
  <path class="st1" d="M10.1,14.4c-1,0-1.8.6-2.3,1.4-.7,1.3.3,2.6.4,2.8.8,1.1,2.1,1.2,2.4,1.3,1.9.2,2.3-1.1,4.3-1.1,1.7,0,1.8,1,3.9,1,.6,0,1.9,0,2.9-.9.7-.6.9-1.3,1-1.5.2-.6.2-1.2.2-1.5,0-.4-.2-1.2-.8-2-.7-.9-2-1.7-3.2-1.5-1.1.2-1.5,1.1-2.1.9-.4-.2-.4-.7-.9-1.4,0-.1-1-1.3-2.5-1.4-1.2,0-2.3.6-2.9,1.6-.6,1-.5,2.1-.5,2.4Z"/>
</svg>